<?xml version="1.0" encoding="utf-8"?>
<!-- Generator: Adobe Illustrator 19.2.1, SVG Export Plug-In . SVG Version: 6.00 Build 0)  -->
<svg version="1.1"
	 id="svg2" inkscape:output_extension="org.inkscape.output.svg.inkscape" inkscape:version="0.45.1" sodipodi:docbase="C:\My Pictures\armor" sodipodi:docname="US-OF5.svg" sodipodi:version="0.32" xmlns:cc="http://web.resource.org/cc/" xmlns:dc="http://purl.org/dc/elements/1.1/" xmlns:inkscape="http://www.inkscape.org/namespaces/inkscape" xmlns:rdf="http://www.w3.org/1999/02/22-rdf-syntax-ns#" xmlns:sodipodi="http://sodipodi.sourceforge.net/DTD/sodipodi-0.dtd" xmlns:svg="http://www.w3.org/2000/svg"
	 xmlns="http://www.w3.org/2000/svg" xmlns:xlink="http://www.w3.org/1999/xlink" x="0px" y="0px" width="210px" height="150px"
	 viewBox="0 0 210 150" style="enable-background:new 0 0 210 150;" xml:space="preserve">
<style type="text/css">
	.st0{fill:#030304;}
	.st1{fill:url(#path5156_1_);}
	.st2{fill:url(#path3143_1_);}
	.st3{fill:url(#path4126_1_);}
	.st4{fill:url(#path4130_1_);}
	.st5{fill:url(#path4136_1_);}
	.st6{fill:url(#path9168_1_);}
	.st7{fill:url(#path4152_1_);}
	.st8{fill:url(#path5178_1_);}
	.st9{fill:url(#path5190_1_);}
	.st10{fill:url(#path7220_1_);}
	.st11{fill:url(#path10153_1_);}
	.st12{fill:url(#path12109_1_);}
	.st13{fill:url(#path13088_1_);}
	.st14{fill:url(#path13100_1_);}
	.st15{fill:url(#path13110_1_);}
	.st16{fill:url(#path15058_1_);}
</style>
<sodipodi:namedview  bordercolor="#666666" borderopacity="1.0" gridtolerance="10000" guidetolerance="10" id="base" inkscape:current-layer="layer2" inkscape:cx="184.27785" inkscape:cy="220.86721" inkscape:document-units="px" inkscape:pageopacity="0.0" inkscape:pageshadow="2" inkscape:window-height="712" inkscape:window-width="1024" inkscape:window-x="1020" inkscape:window-y="-4" inkscape:zoom="0.70710678" objecttolerance="10" pagecolor="#ffffff">
	</sodipodi:namedview>
<g>
	
		<g id="layer2" transform="translate(-148.81543,-239.25468)" inkscape:groupmode="layer" inkscape:label="border" sodipodi:insensitive="true">
		<path id="path2170" sodipodi:nodetypes="cccccccccccccccccc" class="st0" d="M241.5,385.1c5.1,5.1,14.5,5.6,21.2,0.8
			c1.2-8,2.1-16,1.5-24.8c13.2,6.8,17.4,8.3,33.7,6.1c2.8-8.1,3.3-16.8,2-25.9c10.9-1.7,19.5-6.8,25.4-15.9
			c-4.8-14-7.7-17.1-16.5-27.2c3.4-11.3,4.5-16.5,3.5-28.2c-14.5-5.7-18.8-6.1-35.7-5c-6.9-15.4-10.2-17.4-21.6-25.7
			c-16.4,13.3-18.4,12.4-28.6,29c-16.5-0.7-20.6-2-35.6,5.1c2.8,13.3,2.1,15.3,8.6,29.6c-9.4,10.2-13.1,11.4-17,25.4
			c8.9,6.3,12.8,9.9,25.9,13.2c-1,6.7-2.1,15.3,5.4,25.2c14.3-0.3,15.4,1.1,33.8-4.8C245.7,369.9,243.6,377.6,241.5,385.1z"/>
		
			<radialGradient id="path5156_1_" cx="-2.3509" cy="334.7323" r="71.4597" gradientTransform="matrix(0.2645 -2.322311e-002 -2.877013e-002 -0.3277 298.8425 375.6963)" gradientUnits="userSpaceOnUse">
			<stop  offset="0" style="stop-color:#B4B9BE"/>
			<stop  offset="1" style="stop-color:#B4B9BE;stop-opacity:0"/>
		</radialGradient>
		<path id="path5156" sodipodi:nodetypes="cccccccccccccccccc" class="st1" d="M241.5,385.1c5.1,5.1,14.5,5.6,21.2,0.8
			c1.2-8,2.1-16,1.5-24.8c13.2,6.8,17.4,8.3,33.7,6.1c2.8-8.1,3.3-16.8,2-25.9c10.9-1.7,19.5-6.8,25.4-15.9
			c-4.8-14-7.7-17.1-16.5-27.2c3.4-11.3,4.5-16.5,3.5-28.2c-14.5-5.7-18.8-6.1-35.7-5c-6.9-15.4-10.2-17.4-21.6-25.7
			c-16.4,13.3-18.4,12.4-28.6,29c-16.5-0.7-20.6-2-35.6,5.1c2.8,13.3,2.1,15.3,8.6,29.6c-9.4,10.2-13.1,11.4-17,25.4
			c8.9,6.3,12.8,9.9,25.9,13.2c-1,6.7-2.1,15.3,5.4,25.2c14.3-0.3,15.4,1.1,33.8-4.8C245.7,369.9,243.6,377.6,241.5,385.1z"/>
		
			<radialGradient id="path3143_1_" cx="1137.6029" cy="-964.6799" r="71.4597" gradientTransform="matrix(-0.5138 2.939929e-002 2.042138e-002 0.3569 905.9102 676.197)" gradientUnits="userSpaceOnUse">
			<stop  offset="0" style="stop-color:#B4B9BE"/>
			<stop  offset="1" style="stop-color:#B4B9BE;stop-opacity:0"/>
		</radialGradient>
		<path id="path3143" sodipodi:nodetypes="ccccccccccc" class="st2" d="M241.5,385.1c5.1,5.1,14.5,5.6,21.2,0.8
			c1.2-8,2.1-16,1.5-24.8c13.2,6.8,17.4,8.3,33.7,6.1c2.8-8.1,3.3-16.8,2-25.9c10.9-1.7,19.5-6.8,25.4-15.9l-142.9,3
			c8.9,6.3,12.8,9.9,25.9,13.2c-1,6.7-2.1,15.3,5.4,25.2c14.3-0.3,15.4,1.1,33.8-4.8C245.7,369.9,243.6,377.6,241.5,385.1z"/>
		
			<radialGradient id="path4126_1_" cx="1306.8649" cy="-962.0546" r="71.4597" gradientTransform="matrix(-0.4129 -2.709555e-002 -2.107056e-002 0.3211 773.7686 728.7391)" gradientUnits="userSpaceOnUse">
			<stop  offset="0" style="stop-color:#B4B9BE"/>
			<stop  offset="1" style="stop-color:#B4B9BE;stop-opacity:0"/>
		</radialGradient>
		<path id="path4126" sodipodi:nodetypes="ccccc" class="st3" d="M241.5,385.1c5.1,5.1,14.5,5.6,21.2,0.8c1.2-8,2.1-16,1.5-24.8
			l-16.8,0.9C245.7,369.9,243.6,377.6,241.5,385.1z"/>
		
			<radialGradient id="path4130_1_" cx="1144.4973" cy="-1035.756" r="71.4597" gradientTransform="matrix(-0.7289 3.317422e-002 1.202121e-002 0.2641 1055.1334 594.4478)" gradientUnits="userSpaceOnUse">
			<stop  offset="0" style="stop-color:#B4B9BE"/>
			<stop  offset="1" style="stop-color:#B4B9BE;stop-opacity:0"/>
		</radialGradient>
		<path id="path4130" sodipodi:nodetypes="ccccccccccc" class="st4" d="M241.5,385.1c5.1,5.1,14.5,5.6,21.2,0.8
			c1.2-8,2.1-16,1.5-24.8c13.2,6.8,17.4,8.3,33.7,6.1c2.8-8.1,3.3-16.8,2-25.9c10.9-1.7,19.5-6.8,25.4-15.9l-142.9,3
			c8.9,6.3,12.8,9.9,25.9,13.2c-1,6.7-2.1,15.3,5.4,25.2c14.3-0.3,15.4,1.1,33.8-4.8C245.7,369.9,243.6,377.6,241.5,385.1z"/>
		
			<radialGradient id="path4136_1_" cx="191.5064" cy="359.0956" r="71.4597" gradientTransform="matrix(0.4532 -4.609931e-002 -3.328577e-002 -0.3273 132.8926 395.8158)" gradientUnits="userSpaceOnUse">
			<stop  offset="0" style="stop-color:#B4B9BE"/>
			<stop  offset="1" style="stop-color:#B4B9BE;stop-opacity:0"/>
		</radialGradient>
		<path id="path4136" sodipodi:nodetypes="cccccccccccccccccc" class="st5" d="M241.5,385.1c5.1,5.1,14.5,5.6,21.2,0.8
			c1.2-8,2.1-16,1.5-24.8c13.2,6.8,17.4,8.3,33.7,6.1c2.8-8.1,3.3-16.8,2-25.9c10.9-1.7,19.5-6.8,25.4-15.9
			c-4.8-14-7.7-17.1-16.5-27.2c3.4-11.3,4.5-16.5,3.5-28.2c-14.5-5.7-18.8-6.1-35.7-5c-6.9-15.4-10.2-17.4-21.6-25.7
			c-16.4,13.3-18.4,12.4-28.6,29c-16.5-0.7-20.6-2-35.6,5.1c2.8,13.3,2.1,15.3,8.6,29.6c-9.4,10.2-13.1,11.4-17,25.4
			c8.9,6.3,12.8,9.9,25.9,13.2c-1,6.7-2.1,15.3,5.4,25.2c14.3-0.3,15.4,1.1,33.8-4.8C245.7,369.9,243.6,377.6,241.5,385.1z"/>
		
			<radialGradient id="path9168_1_" cx="167.4053" cy="260.3434" r="71.4597" gradientTransform="matrix(0.4532 -4.609931e-002 -3.328577e-002 -0.3273 132.8926 395.8157)" gradientUnits="userSpaceOnUse">
			<stop  offset="0" style="stop-color:#B4B9BE"/>
			<stop  offset="1" style="stop-color:#B4B9BE;stop-opacity:0"/>
		</radialGradient>
		<path id="path9168" sodipodi:nodetypes="cccccccccccccccccc" class="st6" d="M241.5,385.1c5.1,5.1,14.5,5.6,21.2,0.8
			c1.2-8,2.1-16,1.5-24.8c13.2,6.8,17.4,8.3,33.7,6.1c2.8-8.1,3.3-16.8,2-25.9c10.9-1.7,19.5-6.8,25.4-15.9
			c-4.8-14-7.7-17.1-16.5-27.2c3.4-11.3,4.5-16.5,3.5-28.2c-14.5-5.7-18.8-6.1-35.7-5c-6.9-15.4-10.2-17.4-21.6-25.7
			c-16.4,13.3-18.4,12.4-28.6,29c-16.5-0.7-20.6-2-35.6,5.1c2.8,13.3,2.1,15.3,8.6,29.6c-9.4,10.2-13.1,11.4-17,25.4
			c8.9,6.3,12.8,9.9,25.9,13.2c-1,6.7-2.1,15.3,5.4,25.2c14.3-0.3,15.4,1.1,33.8-4.8C245.7,369.9,243.6,377.6,241.5,385.1z"/>
	</g>
	
		<g id="layer1" transform="translate(-148.81543,-239.25468)" inkscape:groupmode="layer" inkscape:label="Upper" sodipodi:insensitive="true">
		
			<linearGradient id="path4152_1_" gradientUnits="userSpaceOnUse" x1="310.5489" y1="27.6145" x2="418.8797" y2="110.155" gradientTransform="matrix(1 0 0 -1 -108.7576 380.3531)">
			<stop  offset="0" style="stop-color:#292C2F"/>
			<stop  offset="0.25" style="stop-color:#FFFFFF"/>
			<stop  offset="0.5" style="stop-color:#292C2F"/>
			<stop  offset="0.75" style="stop-color:#FFFFFF"/>
			<stop  offset="1" style="stop-color:#292C2F"/>
		</linearGradient>
		<path id="path4152" sodipodi:nodetypes="cccccccccccccccccc" class="st7" d="M243.3,384.7c4.9,4.3,11.6,4.8,18,0.8
			c1.1-7.7,1.5-19,1-27.4c12.7,6.5,18.7,10.1,34.4,7.9c2.7-7.8,2.6-17.2,1.3-26.1c10.5-1.6,20.2-5.9,26-14.7
			c-4.6-13.5-8.4-16.9-16.9-26.6c3.3-10.9,4.5-16.2,3.6-27.4c-14-5.5-18.6-5.4-34.9-4.4c-6.7-14.9-9.8-17.6-20.8-25.7
			c-15.8,12.8-17.7,12.9-27.5,28.8c-15.9-0.6-20.4-2.5-34.8,4.3c2.7,12.8,2.6,15.4,8.8,29.2c-9,9.9-13.3,11.6-17,25.2
			c8.6,6.1,12.8,8.6,25.4,11.8c-0.9,6.5-2.7,15.4,4.5,24.9c13.8-0.3,17.8-0.2,35.5-5.8C248.2,367.3,245.4,377.4,243.3,384.7z"/>
	</g>
	<g id="layer5" inkscape:groupmode="layer" inkscape:label="Shadows" sodipodi:insensitive="true">
		
			<linearGradient id="path5178_1_" gradientUnits="userSpaceOnUse" x1="191.8815" y1="-200.5393" x2="205.9155" y2="-212.6513" gradientTransform="matrix(1 0 0 -1 -106.6386 -97.9427)">
			<stop  offset="0" style="stop-color:#53565B"/>
			<stop  offset="1" style="stop-color:#DCDCDC"/>
		</linearGradient>
		<path id="path5178" sodipodi:nodetypes="cccc" class="st8" d="M107,83.2l-5.7,35.5c-15.4,4.7-17.9,6.1-34.5,6.3
			C70.3,110.6,101.3,86.2,107,83.2z"/>
		
			<linearGradient id="path5190_1_" gradientUnits="userSpaceOnUse" x1="153.3346" y1="-187.2311" x2="213.3355" y2="-187.2311" gradientTransform="matrix(1 0 0 -1 -106.6386 -97.9427)">
			<stop  offset="0" style="stop-color:#DCDCDC"/>
			<stop  offset="1" style="stop-color:#000000"/>
		</linearGradient>
		<path id="path5190" sodipodi:nodetypes="cccc" class="st9" d="M36.5,88.9c24.1-9.8,32.6-14,70-7.8c-22.8,7-23.6,6.5-44.3,19.3
			C52.8,97.5,43.9,94,36.5,88.9z"/>
		
			<linearGradient id="path7220_1_" gradientUnits="userSpaceOnUse" x1="77.9441" y1="97.8815" x2="72.6751" y2="83.5776" gradientTransform="matrix(1 0 0 -1 0 149.6655)">
			<stop  offset="0" style="stop-color:#DCDCDC"/>
			<stop  offset="1" style="stop-color:#000000"/>
		</linearGradient>
		<path id="path7220" sodipodi:nodetypes="cccc" class="st10" d="M53.4,64c-6.1-12-5.8-17-8.6-28.3c26.9,13.1,31,11.4,62.1,43.7
			C76.5,67.2,79.8,69.1,53.4,64z"/>
		
			<linearGradient id="path10153_1_" gradientUnits="userSpaceOnUse" x1="79.2829" y1="117.9519" x2="130.3848" y2="35.0901" gradientTransform="matrix(1 0 0 -1 0 149.6655)">
			<stop  offset="0" style="stop-color:#000000"/>
			<stop  offset="0.5" style="stop-color:#FFFFFF"/>
			<stop  offset="1" style="stop-color:#000000"/>
		</linearGradient>
		<path id="path10153" sodipodi:nodetypes="cccc" class="st11" d="M107.2,78.7C96.9,60.9,86.8,45.7,78,31.8l1.6,0
			C90.9,46.6,96.9,58.4,107.2,78.7z"/>
		
			<linearGradient id="path12109_1_" gradientUnits="userSpaceOnUse" x1="125.9349" y1="108.2032" x2="110.1287" y2="108.2032" gradientTransform="matrix(1 0 0 -1 0 149.6655)">
			<stop  offset="0" style="stop-color:#DCDCDC"/>
			<stop  offset="1" style="stop-color:#000000"/>
		</linearGradient>
		<path id="path12109" sodipodi:nodetypes="cccc" class="st12" d="M106.3,3.4c7.5,5.2,14.1,11,19.7,24.7
			c-4.9,17.1-11.1,34.3-17.9,51.4C105.2,53.9,106.8,28.8,106.3,3.4z"/>
		
			<linearGradient id="path13088_1_" gradientUnits="userSpaceOnUse" x1="147.4258" y1="78.7716" x2="138.3521" y2="88.935" gradientTransform="matrix(1 0 0 -1 0 149.6655)">
			<stop  offset="0" style="stop-color:#DCDCDC"/>
			<stop  offset="1" style="stop-color:#000000"/>
		</linearGradient>
		<path id="path13088" sodipodi:nodetypes="cccc" class="st13" d="M108.1,80.1c15.8-7.8,23.5-10.8,49.3-21.8
			c2.9-8.4,3.3-16.8,3.6-25.2C143,48.5,124.1,63.8,108.1,80.1z"/>
		
			<linearGradient id="path13100_1_" gradientUnits="userSpaceOnUse" x1="96.8624" y1="64.7146" x2="185.8908" y2="56.2855" gradientTransform="matrix(1 0 0 -1 0 149.6655)">
			<stop  offset="0" style="stop-color:#DCDCDC"/>
			<stop  offset="1" style="stop-color:#000000"/>
		</linearGradient>
		<path id="path13100" sodipodi:nodetypes="cccc" class="st14" d="M109,81c31.4-5.5,28.1-1,64.3,4.9c-5.1,8.5-14.9,12.1-24.8,13.9
			C136.1,91.8,133.8,90.8,109,81z"/>
		
			<linearGradient id="path13110_1_" gradientUnits="userSpaceOnUse" x1="112.253" y1="34.917" x2="131.5446" y2="47.9783" gradientTransform="matrix(1 0 0 -1 0 149.6655)">
			<stop  offset="0" style="stop-color:#DCDCDC"/>
			<stop  offset="1" style="stop-color:#000000"/>
		</linearGradient>
		<path id="path13110" sodipodi:nodetypes="cccc" class="st15" d="M146.2,125.7c-12.2,1.5-22.5-1.9-31.5-8.7
			c-0.6-11.1-1.5-19.3-6.5-33.4C126.2,99.6,134.7,110.9,146.2,125.7z"/>
		
			<linearGradient id="path15058_1_" gradientUnits="userSpaceOnUse" x1="90.4284" y1="3.7833" x2="107.9871" y2="3.7833" gradientTransform="matrix(1 0 0 -1 0 149.6655)">
			<stop  offset="0" style="stop-color:#000000"/>
			<stop  offset="0.5" style="stop-color:#FFFFFF"/>
			<stop  offset="1" style="stop-color:#000000"/>
		</linearGradient>
		<path id="path15058" sodipodi:nodetypes="ccc" class="st16" d="M94.5,145.4c2.8-4.3,19.4-2.7,18,0.8
			C107.4,150,98.5,150,94.5,145.4z"/>
	</g>
</g>
</svg>
