<?xml version="1.0" encoding="utf-8"?>
<!-- Generator: Adobe Illustrator 19.2.1, SVG Export Plug-In . SVG Version: 6.00 Build 0)  -->
<svg version="1.1"
	 id="svg2" inkscape:output_extension="org.inkscape.output.svg.inkscape" inkscape:version="0.45.1" sodipodi:docbase="C:\My Pictures\armor" sodipodi:docname="US-OF5.svg" sodipodi:version="0.32" xmlns:cc="http://web.resource.org/cc/" xmlns:dc="http://purl.org/dc/elements/1.1/" xmlns:inkscape="http://www.inkscape.org/namespaces/inkscape" xmlns:rdf="http://www.w3.org/1999/02/22-rdf-syntax-ns#" xmlns:sodipodi="http://sodipodi.sourceforge.net/DTD/sodipodi-0.dtd" xmlns:svg="http://www.w3.org/2000/svg"
	 xmlns="http://www.w3.org/2000/svg" xmlns:xlink="http://www.w3.org/1999/xlink" x="0px" y="0px" width="210px" height="150px"
	 viewBox="0 0 210 150" style="enable-background:new 0 0 210 150;" xml:space="preserve">
<style type="text/css">
	.st0{fill:#FFFFFF;}
	.st1{fill:url(#path3143_1_);}
	.st2{fill:url(#path4126_1_);}
	.st3{fill:url(#path5109_1_);}
	.st4{fill:url(#path5113_1_);}
	.st5{fill:url(#path5123_1_);}
	.st6{fill:none;stroke:#000000;}
</style>
<sodipodi:namedview  bordercolor="#666666" borderopacity="1.0" gridtolerance="10000" guidetolerance="10" id="base" inkscape:current-layer="layer2" inkscape:cx="184.27785" inkscape:cy="220.86721" inkscape:document-units="px" inkscape:pageopacity="0.0" inkscape:pageshadow="2" inkscape:window-height="712" inkscape:window-width="1024" inkscape:window-x="1020" inkscape:window-y="-4" inkscape:zoom="0.70710678" objecttolerance="10" pagecolor="#ffffff">
	</sodipodi:namedview>
<g id="g3184">
	<path id="path3145" class="st0" d="M85.4,56.2L105.7,0l20.4,56.3l58.8,0.2l-46,34.5l21.5,58.9l-54.5-37.7L52.7,150l20.7-58.3
		L24.6,56.5L85.4,56.2z"/>
	
		<linearGradient id="path3143_1_" gradientUnits="userSpaceOnUse" x1="189.5093" y1="-4.0867" x2="184.1747" y2="6.3535" gradientTransform="matrix(3.4032 0 0 -3.4032 -560.651 111.4433)">
		<stop  offset="0" style="stop-color:#777777"/>
		<stop  offset="0.5" style="stop-color:#FFFFFF"/>
		<stop  offset="1" style="stop-color:#777777"/>
	</linearGradient>
	<path id="path3143" class="st1" d="M105.8,112.2L52.7,150l52.9-69.4L105.8,112.2z"/>
	
		<linearGradient id="path4126_1_" gradientUnits="userSpaceOnUse" x1="170.7035" y1="19.9956" x2="187.3804" y2="9.6974" gradientTransform="matrix(3.4032 0 0 -3.4032 -560.651 111.4433)">
		<stop  offset="0" style="stop-color:#777777"/>
		<stop  offset="0.5" style="stop-color:#FFFFFF"/>
		<stop  offset="1" style="stop-color:#777777"/>
	</linearGradient>
	<path id="path4126" class="st2" d="M105.6,80.6L73.4,91.7L24.6,56.5L105.6,80.6z"/>
	
		<linearGradient id="path5109_1_" gradientUnits="userSpaceOnUse" x1="196.6881" y1="24.7145" x2="216.9753" y2="28.5387" gradientTransform="matrix(0.9682 3.2625 3.2625 -0.9682 -191.495 -620.1041)">
		<stop  offset="0" style="stop-color:#777777"/>
		<stop  offset="0.5" style="stop-color:#FFFFFF"/>
		<stop  offset="1" style="stop-color:#777777"/>
	</linearGradient>
	<path id="path5109" class="st3" d="M105.6,80.6L85.2,56.1l20.3-55.6L105.6,80.6z"/>
	
		<linearGradient id="path5113_1_" gradientUnits="userSpaceOnUse" x1="203.9882" y1="20.2288" x2="207.697" y2="11.9717" gradientTransform="matrix(3.4032 0 0 -3.4032 -560.651 111.4433)">
		<stop  offset="0" style="stop-color:#777777"/>
		<stop  offset="0.5" style="stop-color:#FFFFFF"/>
		<stop  offset="1" style="stop-color:#777777"/>
	</linearGradient>
	<path id="path5113" class="st4" d="M126.1,56.3l58.8,0.2l-79.2,24L126.1,56.3z"/>
	
		<linearGradient id="path5123_1_" gradientUnits="userSpaceOnUse" x1="199.2906" y1="10.9175" x2="206.0156" y2="-5.8517" gradientTransform="matrix(3.4032 0 0 -3.4032 -560.651 111.4433)">
		<stop  offset="0" style="stop-color:#777777"/>
		<stop  offset="0.5" style="stop-color:#FFFFFF"/>
		<stop  offset="1" style="stop-color:#777777"/>
	</linearGradient>
	<path id="path5123" class="st5" d="M138.8,91.1l21.5,58.9l-54.7-69.4L138.8,91.1z"/>
	<path id="path2170" class="st6" d="M85.4,56.2L105.7,0l20.4,56.3l58.8,0.2l-46,34.5l21.5,58.9l-54.5-37.7L52.7,150l20.7-58.3
		L24.6,56.5L85.4,56.2z"/>
</g>
</svg>
