<?xml version="1.0" encoding="utf-8"?>
<!-- Generator: Adobe Illustrator 19.2.1, SVG Export Plug-In . SVG Version: 6.00 Build 0)  -->
<svg version="1.1" xmlns="http://www.w3.org/2000/svg" xmlns:xlink="http://www.w3.org/1999/xlink" x="0px" y="0px" width="210px"
	 height="150px" viewBox="0 0 210 150" style="enable-background:new 0 0 210 150;" xml:space="preserve">
<style type="text/css">
	.st0{fill:none;}
	.st1{fill:#1A374F;}
</style>
<g id="Layer_2">
	<rect class="st0" width="210" height="150"/>
</g>
<g id="Layer_1">
	<g>
		<path class="st1" d="M95.8,70.9h-2.7L70.7,37.4h-0.2c0.2,4,0.3,7,0.3,9.1v24.5h-2.5V33.2h2.6l22.4,33.4h0.1
			c-0.1-3.1-0.2-6.1-0.2-8.9V33.2h2.6L95.8,70.9L95.8,70.9z"/>
		<path class="st1" d="M138.3,52c0,6-1.5,10.7-4.5,14.2c-3,3.5-7.1,5.2-12.4,5.2c-5.3,0-9.4-1.7-12.3-5.2c-3-3.5-4.5-8.2-4.5-14.3
			s1.5-10.7,4.5-14.2c3-3.5,7.1-5.2,12.4-5.2c5.3,0,9.4,1.7,12.3,5.2C136.8,41.3,138.3,46,138.3,52z M107.4,52
			c0,5.4,1.2,9.6,3.6,12.6c2.4,2.9,5.8,4.4,10.4,4.4c4.5,0,8-1.5,10.4-4.4c2.4-2.9,3.6-7.1,3.6-12.6s-1.2-9.6-3.6-12.6
			s-5.8-4.3-10.4-4.3c-4.5,0-8,1.5-10.4,4.4C108.6,42.5,107.4,46.7,107.4,52z"/>
		<path class="st1" d="M0,116.9V79.2h2.6v37.8C2.6,116.9,0,116.9,0,116.9z"/>
		<path class="st1" d="M40.8,116.9h-2.7L15.8,83.4h-0.2c0.2,4,0.3,7,0.3,9.1v24.5h-2.5V79.2H16l22.3,33.4h0.1
			c-0.1-3.1-0.2-6.1-0.2-8.9V79.2h2.6V116.9z"/>
		<path class="st1" d="M72.4,107.2c0,3.1-1.2,5.6-3.5,7.5c-2.3,1.8-5.4,2.8-9.2,2.8c-4.7,0-8.1-0.5-10.6-1.5v-2.6
			c2.7,1.2,6.2,1.7,10.4,1.7c3.1,0,5.5-0.8,7.4-2.2c1.8-1.4,2.7-3.2,2.7-5.6c0-1.4-0.3-2.6-0.9-3.6c-0.6-1-1.6-1.8-2.9-2.6
			c-1.4-0.8-3.4-1.6-6-2.5c-3.9-1.3-6.5-2.8-8-4.3s-2.2-3.6-2.2-6.2c0-2.8,1.1-5.1,3.4-6.9c2.2-1.7,5.1-2.7,8.6-2.7
			c3.6,0,6.9,0.6,10,2.1l-1,2.3c-3.1-1.3-6.2-1.9-9-1.9c-2.8,0-5,0.6-6.7,1.9c-1.7,1.3-2.5,3-2.5,5.3c0,1.4,0.2,2.5,0.8,3.5
			c0.5,0.9,1.3,1.7,2.5,2.4c1.2,0.8,3.1,1.6,6,2.6c2.9,1,5.2,2.1,6.6,2.9c1.5,1,2.6,2.1,3.2,3.2C72.1,104.1,72.4,105.5,72.4,107.2z"
			/>
		<path class="st1" d="M80.4,116.9V79.2H83v37.8C83,116.9,80.4,116.9,80.4,116.9z"/>
		<path class="st1" d="M108.6,97.9h14v17.2c-3.7,1.5-7.8,2.3-12.3,2.3c-6,0-10.5-1.7-13.7-5.1c-3.1-3.4-4.8-8.1-4.8-14.3
			c0-3.9,0.8-7.3,2.4-10.2c1.6-2.9,3.8-5.3,6.8-6.9c2.9-1.6,6.3-2.4,10.1-2.4c4.1,0,7.8,0.8,11,2.3l-1.1,2.4
			c-3.2-1.5-6.7-2.3-10.2-2.3c-5,0-9,1.5-11.8,4.7c-2.9,3-4.3,7.3-4.3,12.4c0,5.7,1.4,10,4.1,12.9c2.8,2.9,6.8,4.3,12.2,4.3
			c3.5,0,6.4-0.5,8.9-1.5v-13.3h-11.3V97.9z"/>
		<path class="st1" d="M159.6,116.9h-2.7l-22.4-33.6h-0.2c0.2,4,0.3,7,0.3,9.1v24.5h-2.5V79.2h2.6l22.4,33.4h0.1
			c-0.1-3.1-0.2-6.1-0.2-8.9V79.2h2.6V116.9z"/>
		<path class="st1" d="M170.2,116.9V79.2h2.6v37.8C172.8,116.9,170.2,116.9,170.2,116.9z"/>
		<path class="st1" d="M201.8,103.6h-15.4l-5.3,13.3h-2.9l15.2-38h1.7l14.9,38h-2.9L201.8,103.6z M187.4,101.2h13.5l-5.2-13.6
			c-0.4-1.1-1-2.6-1.5-4.4c-0.4,1.6-1,3.1-1.5,4.5L187.4,101.2z"/>
	</g>
</g>
</svg>
